<?xml version="1.0" encoding="UTF-8"?>
<svg xmlns="http://www.w3.org/2000/svg" viewBox="0 0 128 128">
  <defs>
    <linearGradient id="g" x1="0%" y1="0%" x2="100%" y2="100%">
      <stop offset="0%" stop-color="#2563eb"/>
      <stop offset="100%" stop-color="#7c3aed"/>
    </linearGradient>
  </defs>
  <rect width="128" height="128" rx="26" fill="url(#g)"/>
  <path fill="#fff" d="M84 32a12 12 0 1 0 13 19l-33 20a12 12 0 1 0 0 14l33 20a12 12 0 1 0 4-6l-33-20a12 12 0 0 0 0-2l33-20a12 12 0 1 0-4-6L60 71a12 12 0 1 0 0-14z"/>
</svg>
